<svg width="25" height="24" viewBox="0 0 25 24" fill="none" xmlns="http://www.w3.org/2000/svg">
<path fill-rule="evenodd" clip-rule="evenodd" d="M7.48547 5C7.48547 3.34315 8.82862 2 10.4855 2H15.7428C16.5385 2 17.3015 2.31607 17.8642 2.87868L20.6068 5.62132C21.1694 6.18393 21.4855 6.94699 21.4855 7.74264V15C21.4855 16.6569 20.1423 18 18.4855 18H17.4855V19C17.4855 20.6569 16.1423 22 14.4855 22H6.48547C4.82862 22 3.48547 20.6569 3.48547 19V9C3.48547 7.34315 4.82862 6 6.48547 6H7.48547V5ZM7.48547 15V8H6.48547C5.93319 8 5.48547 8.44772 5.48547 9V19C5.48547 19.5523 5.93319 20 6.48547 20H14.4855C15.0378 20 15.4855 19.5523 15.4855 19V18H10.4855C8.82862 18 7.48547 16.6569 7.48547 15ZM15.4855 4.20712V6.00001C15.4855 7.10458 16.3809 8.00001 17.4855 8.00001H19.2784C19.7238 8.00001 19.9469 7.46144 19.6319 7.14646L16.339 3.85356C16.024 3.53858 15.4855 3.76167 15.4855 4.20712Z" fill="white"/>
</svg>
